<svg width="38" height="38" viewBox="0 0 38 38" version="1.1" xmlns="http://www.w3.org/2000/svg" xmlns:xlink="http://www.w3.org/1999/xlink">
<title>Group 3.6</title>
<desc>Created using Figma</desc>
<g id="Canvas" transform="translate(2051 1486)">
<g id="Group 3.6">
<g id="Ellipse">
<use xlink:href="#path0_fill" transform="translate(-2051 -1486)" fill="#FFFFFF"/>
</g>
<g id="Union">
<use xlink:href="#path1_fill" transform="translate(-2051 -1486)" fill="#D32F2F"/>
</g>
</g>
</g>
<defs>
<path id="path0_fill" d="M 38 19C 38 29.4934 29.4934 38 19 38C 8.50659 38 0 29.4934 0 19C 0 8.50659 8.50659 0 19 0C 29.4934 0 38 8.50659 38 19Z"/>
<path id="path1_fill" fill-rule="evenodd" d="M 35.9995 19.1321C 35.999 19.1976 35.998 19.2631 35.9968 19.3284L 29.7991 15.75C 29.0815 15.3357 28.1643 15.5815 27.75 16.299C 27.3357 17.0165 27.5815 17.9338 28.2991 18.348L 35.2393 22.355C 35.3667 22.4285 35.5002 22.4812 35.6362 22.5142C 34.0173 30.2168 27.1841 36 19 36C 16.2583 36 13.668 35.351 11.3748 34.1981L 16.5671 25.2043C 16.6819 25.35 16.8254 25.4767 16.9958 25.575L 23.3611 29.25C 24.0786 29.6642 24.9958 29.4183 25.4102 28.7009C 25.8245 27.9835 25.5786 27.066 24.8611 26.6519L 18.4958 22.9769C 18.3254 22.8785 18.1438 22.8175 17.9604 22.791L 28.3481 4.79871C 32.958 7.83936 36 13.0645 36 19L 35.9995 19.1321ZM 26.6169 3.79773L 21.512 12.6396C 21.4985 12.6294 21.4849 12.6194 21.4709 12.6095C 21.4331 12.5826 21.3933 12.5573 21.3523 12.5334L 14.7991 8.75C 14.0815 8.33569 13.1643 8.58154 12.75 9.29895C 12.3357 10.0165 12.5815 10.9338 13.2991 11.348L 19.8523 15.1315C 19.9084 15.1639 19.9658 15.1923 20.0242 15.2167L 9.6438 33.1959C 5.18994 30.2545 2.20166 25.2733 2.00977 19.583L 8.36108 23.25C 9.07861 23.6642 9.99585 23.4183 10.4102 22.7009C 10.8245 21.9835 10.5786 21.066 9.86108 20.6519L 2.61841 16.4703C 2.48804 16.395 2.35132 16.3417 2.21191 16.3088C 3.50171 8.19885 10.5269 2 19 2C 21.7385 2 24.3257 2.64746 26.6169 3.79773ZM 38 19C 38 29.4934 29.4934 38 19 38C 8.50659 38 0 29.4934 0 19C 0 8.50659 8.50659 0 19 0C 29.4934 0 38 8.50659 38 19Z"/>
</defs>
</svg>
